# Blender v2.93.0 OBJ File: 'fire.blend'
# www.blender.org
mtllib fire.mtl
o Cylinder.031_Cylinder.023
v 0.746559 -0.025453 -0.147886
v -0.746559 -0.025452 -0.147886
v 0.746559 -0.130024 -0.104571
v -0.746559 -0.130023 -0.104571
v 0.746559 -0.173338 -0.000000
v -0.746559 -0.173338 0.000000
v 0.746559 -0.130024 0.104571
v -0.746559 -0.130023 0.104571
v 0.746559 -0.025453 0.147886
v -0.746559 -0.025452 0.147886
v 0.746559 0.079118 0.104571
v -0.746559 0.079119 0.104571
v 0.746559 0.122433 -0.000000
v -0.746559 0.122433 0.000000
v 0.746559 0.079118 -0.104571
v -0.746559 0.079119 -0.104571
vt 1.000000 0.500000
vt 0.875000 0.500000
vt 0.875000 1.000000
vt 1.000000 1.000000
vt 0.750000 0.500000
vt 0.750000 1.000000
vt 0.625000 0.500000
vt 0.625000 1.000000
vt 0.500000 0.500000
vt 0.500000 1.000000
vt 0.375000 0.500000
vt 0.375000 1.000000
vt 0.250000 0.500000
vt 0.250000 1.000000
vt 0.419706 0.419706
vt 0.490000 0.250000
vt 0.419706 0.080294
vt 0.250000 0.010000
vt 0.080294 0.080294
vt 0.010000 0.250000
vt 0.080294 0.419706
vt 0.250000 0.490000
vt 0.125000 0.500000
vt 0.125000 1.000000
vt 0.000000 0.500000
vt 0.000000 1.000000
vt 0.750000 0.490000
vt 0.580294 0.419706
vt 0.510000 0.250000
vt 0.580294 0.080294
vt 0.750000 0.010000
vt 0.919706 0.080294
vt 0.990000 0.250000
vt 0.919706 0.419706
vn -0.0000 0.0000 -1.0000
vn -0.0000 -0.7071 -0.7071
vn -0.0000 -1.0000 0.0000
vn -0.0000 -0.7071 0.7071
vn 0.0000 0.0000 1.0000
vn 0.0000 0.7071 0.7071
vn 0.0000 1.0000 0.0000
vn -1.0000 0.0000 0.0000
vn 0.0000 0.7071 -0.7071
vn 1.0000 0.0000 -0.0000
usemtl дерево_темное
s 1
f 1/1/1 3/2/2 4/3/2 2/4/1
f 3/2/2 5/5/3 6/6/3 4/3/2
f 5/5/3 7/7/4 8/8/4 6/6/3
f 7/7/4 9/9/5 10/10/5 8/8/4
f 9/9/5 11/11/6 12/12/6 10/10/5
f 11/11/6 13/13/7 14/14/7 12/12/6
f 4/15/8 6/16/8 8/17/8 10/18/8 12/19/8 14/20/8 16/21/8 2/22/8
f 13/13/7 15/23/9 16/24/9 14/14/7
f 15/23/9 1/25/1 2/26/1 16/24/9
f 1/27/10 15/28/10 13/29/10 11/30/10 9/31/10 7/32/10 5/33/10 3/34/10
o Cylinder.032
v 0.501352 -0.025453 0.572596
v -0.245207 -0.025452 -0.720482
v 0.463841 -0.130024 0.594254
v -0.282718 -0.130023 -0.698825
v 0.373280 -0.173338 0.646539
v -0.373280 -0.173338 -0.646539
v 0.282718 -0.130024 0.698825
v -0.463841 -0.130023 -0.594254
v 0.245207 -0.025452 0.720482
v -0.501352 -0.025452 -0.572596
v 0.282718 0.079119 0.698825
v -0.463841 0.079119 -0.594254
v 0.373280 0.122433 0.646539
v -0.373280 0.122433 -0.646539
v 0.463841 0.079119 0.594254
v -0.282718 0.079119 -0.698825
vt 1.000000 0.500000
vt 0.875000 0.500000
vt 0.875000 1.000000
vt 1.000000 1.000000
vt 0.750000 0.500000
vt 0.750000 1.000000
vt 0.625000 0.500000
vt 0.625000 1.000000
vt 0.500000 0.500000
vt 0.500000 1.000000
vt 0.375000 0.500000
vt 0.375000 1.000000
vt 0.250000 0.500000
vt 0.250000 1.000000
vt 0.419706 0.419706
vt 0.490000 0.250000
vt 0.419706 0.080294
vt 0.250000 0.010000
vt 0.080294 0.080294
vt 0.010000 0.250000
vt 0.080294 0.419706
vt 0.250000 0.490000
vt 0.125000 0.500000
vt 0.125000 1.000000
vt 0.000000 0.500000
vt 0.000000 1.000000
vt 0.750000 0.490000
vt 0.580294 0.419706
vt 0.510000 0.250000
vt 0.580294 0.080294
vt 0.750000 0.010000
vt 0.919706 0.080294
vt 0.990000 0.250000
vt 0.919706 0.419706
vn 0.8660 -0.0000 -0.5000
vn 0.6124 -0.7071 -0.3536
vn -0.0000 -1.0000 -0.0000
vn -0.6124 -0.7071 0.3536
vn -0.8660 0.0000 0.5000
vn -0.6124 0.7071 0.3536
vn 0.0000 1.0000 0.0000
vn -0.5000 0.0000 -0.8660
vn 0.6124 0.7071 -0.3536
vn 0.5000 -0.0000 0.8660
usemtl дерево_темное
s 1
f 17/35/11 19/36/12 20/37/12 18/38/11
f 19/36/12 21/39/13 22/40/13 20/37/12
f 21/39/13 23/41/14 24/42/14 22/40/13
f 23/41/14 25/43/15 26/44/15 24/42/14
f 25/43/15 27/45/16 28/46/16 26/44/15
f 27/45/16 29/47/17 30/48/17 28/46/16
f 20/49/18 22/50/18 24/51/18 26/52/18 28/53/18 30/54/18 32/55/18 18/56/18
f 29/47/17 31/57/19 32/58/19 30/48/17
f 31/57/19 17/59/11 18/60/11 32/58/19
f 17/61/20 31/62/20 29/63/20 27/64/20 25/65/20 23/66/20 21/67/20 19/68/20
o Cylinder.033
v -0.245207 -0.025452 0.720482
v 0.501352 -0.025452 -0.572596
v -0.282718 -0.130023 0.698825
v 0.463841 -0.130023 -0.594254
v -0.373280 -0.173338 0.646539
v 0.373280 -0.173338 -0.646539
v -0.463841 -0.130023 0.594254
v 0.282718 -0.130023 -0.698825
v -0.501352 -0.025452 0.572596
v 0.245207 -0.025452 -0.720482
v -0.463841 0.079119 0.594254
v 0.282718 0.079119 -0.698825
v -0.373280 0.122433 0.646539
v 0.373280 0.122433 -0.646539
v -0.282718 0.079119 0.698825
v 0.463841 0.079119 -0.594254
vt 1.000000 0.500000
vt 0.875000 0.500000
vt 0.875000 1.000000
vt 1.000000 1.000000
vt 0.750000 0.500000
vt 0.750000 1.000000
vt 0.625000 0.500000
vt 0.625000 1.000000
vt 0.500000 0.500000
vt 0.500000 1.000000
vt 0.375000 0.500000
vt 0.375000 1.000000
vt 0.250000 0.500000
vt 0.250000 1.000000
vt 0.419706 0.419706
vt 0.490000 0.250000
vt 0.419706 0.080294
vt 0.250000 0.010000
vt 0.080294 0.080294
vt 0.010000 0.250000
vt 0.080294 0.419706
vt 0.250000 0.490000
vt 0.125000 0.500000
vt 0.125000 1.000000
vt 0.000000 0.500000
vt 0.000000 1.000000
vt 0.750000 0.490000
vt 0.580294 0.419706
vt 0.510000 0.250000
vt 0.580294 0.080294
vt 0.750000 0.010000
vt 0.919706 0.080294
vt 0.990000 0.250000
vt 0.919706 0.419706
vn 0.8660 0.0000 0.5000
vn 0.6124 -0.7071 0.3536
vn 0.0000 -1.0000 -0.0000
vn -0.6124 -0.7071 -0.3536
vn -0.8660 0.0000 -0.5000
vn -0.6124 0.7071 -0.3536
vn -0.0000 1.0000 -0.0000
vn 0.5000 0.0000 -0.8660
vn 0.6124 0.7071 0.3536
vn -0.5000 0.0000 0.8660
usemtl дерево_темное
s 1
f 33/69/21 35/70/22 36/71/22 34/72/21
f 35/70/22 37/73/23 38/74/23 36/71/22
f 37/73/23 39/75/24 40/76/24 38/74/23
f 39/75/24 41/77/25 42/78/25 40/76/24
f 41/77/25 43/79/26 44/80/26 42/78/25
f 43/79/26 45/81/27 46/82/27 44/80/26
f 36/83/28 38/84/28 40/85/28 42/86/28 44/87/28 46/88/28 48/89/28 34/90/28
f 45/81/27 47/91/29 48/92/29 46/82/27
f 47/91/29 33/93/21 34/94/21 48/92/29
f 33/95/30 47/96/30 45/97/30 43/98/30 41/99/30 39/100/30 37/101/30 35/102/30
o Icosphere
v 0.100794 -0.190528 -0.086942
v 0.360154 0.095904 -0.054620
v 0.177996 -0.037206 0.260747
v -0.187853 -0.119472 0.162036
v -0.231798 -0.037206 -0.214339
v 0.106890 0.095904 -0.348237
v 0.249839 0.348611 0.194672
v -0.100151 0.208115 0.342347
v -0.354218 0.208466 0.049425
v -0.164467 0.350495 -0.276481
v 0.182141 0.571416 -0.173338
v -0.055409 0.592382 0.040417
v 0.163868 -0.160790 0.102159
v 0.270937 -0.082550 -0.083208
v 0.316317 0.007571 0.121158
v 0.274520 0.085811 -0.236793
v 0.122073 -0.082550 -0.255791
v -0.051172 -0.209144 0.044139
v -0.005795 -0.119024 0.248506
v -0.077001 -0.160790 -0.177088
v -0.246665 -0.119024 -0.030742
v -0.073419 0.007571 -0.330674
v 0.326638 0.284565 -0.133391
v 0.177330 0.284759 -0.305591
v 0.241100 0.153415 0.279011
v 0.350527 0.233044 0.090821
v -0.173246 0.026796 0.299931
v 0.041796 0.075151 0.357954
v -0.347943 0.075152 -0.093881
v -0.322111 0.026796 0.127348
v -0.039757 0.233285 -0.360543
v -0.240692 0.153437 -0.279444
v 0.257929 0.514203 0.008615
v 0.089633 0.296437 0.315245
v -0.266161 0.216736 0.229748
v -0.303482 0.297868 -0.133648
v 0.010355 0.516714 -0.264694
v 0.109543 0.535813 0.140065
v -0.065931 0.915494 0.056870
v -0.087724 0.376341 0.225409
v -0.239842 0.377610 0.055693
v -0.142431 0.539457 -0.129179
vt 0.818181 0.000000
vt 0.772726 0.078731
vt 0.863635 0.078731
vt 0.727272 0.157461
vt 0.681818 0.078731
vt 0.636363 0.157461
vt 0.090909 0.000000
vt 0.045454 0.078731
vt 0.136363 0.078731
vt 0.272727 0.000000
vt 0.227273 0.078731
vt 0.318182 0.078731
vt 0.454545 0.000000
vt 0.409090 0.078731
vt 0.500000 0.078731
vt 0.681818 0.236191
vt 0.909090 0.157461
vt 0.818181 0.157461
vt 0.863635 0.236191
vt 0.181818 0.157461
vt 0.090909 0.157461
vt 0.136363 0.236191
vt 0.363636 0.157461
vt 0.272727 0.157461
vt 0.318182 0.236191
vt 0.545454 0.157461
vt 0.454545 0.157461
vt 0.500000 0.236191
vt 0.772726 0.236191
vt 0.954545 0.236191
vt 0.227273 0.236191
vt 0.409090 0.236191
vt 0.590909 0.236191
vt 0.818181 0.314921
vt 0.727272 0.314921
vt 0.772726 0.393651
vt 1.000000 0.314921
vt 0.909091 0.314921
vt 0.954545 0.393651
vt 0.272727 0.314921
vt 0.181818 0.314921
vt 0.227273 0.393651
vt 0.454545 0.314921
vt 0.363636 0.314921
vt 0.409090 0.393651
vt 0.636363 0.314921
vt 0.545454 0.314921
vt 0.590909 0.393651
vt 0.500000 0.393651
vt 0.545454 0.472382
vt 0.318182 0.393651
vt 0.363636 0.472382
vt 0.136363 0.393651
vt 0.181818 0.472382
vt 0.090909 0.314921
vt 0.863635 0.393651
vt 0.909090 0.472382
vt 0.681818 0.393651
vt 0.727272 0.472382
vt 0.045454 0.236191
vt 0.000000 0.157461
vt 0.590909 0.078731
vt 0.636363 0.000000
vn 0.5360 -0.8430 -0.0462
vn 0.8504 -0.3643 -0.3796
vn 0.1958 -0.9767 0.0883
vn -0.0586 -0.9767 -0.2066
vn 0.1244 -0.8430 -0.5234
vn 0.9052 -0.0165 -0.4246
vn 0.7240 -0.2992 0.6215
vn -0.3322 -0.6292 0.7026
vn -0.8045 -0.5155 -0.2949
vn -0.0348 -0.1260 -0.9914
vn 0.9868 0.1454 -0.0717
vn 0.4345 -0.2273 0.8715
vn -0.6662 -0.4752 0.5747
vn -0.7984 -0.2276 -0.5575
vn 0.2118 0.1394 -0.9673
vn 0.5792 0.5962 0.5558
vn -0.1509 0.5717 0.8064
vn -0.7798 0.5141 0.3572
vn -0.7098 0.4827 -0.5130
vn 0.1932 0.6380 -0.7454
vn -0.8817 -0.0526 0.4688
vn -0.5510 0.4574 -0.6980
vn -0.4967 0.5689 -0.6555
vn -0.7403 0.6484 0.1775
vn -0.8316 0.5535 0.0464
vn -0.8300 0.5559 0.0448
vn -0.8285 0.5583 0.0434
vn -0.8284 0.5585 0.0432
vn -0.6123 0.5651 0.5530
vn -0.5658 0.6464 0.5119
vn -0.4569 0.5302 0.7142
vn -0.2143 0.6536 0.7259
vn -0.1354 0.5924 0.7942
vn 0.3993 0.5196 0.7554
vn -0.5312 -0.0603 0.8451
vn 0.6322 0.4330 0.6425
vn 0.7655 0.6322 -0.1200
vn 0.3322 0.3905 -0.8586
vn 0.1701 0.2886 -0.9422
vn -0.2735 0.3512 -0.8955
vn -0.7368 0.2942 -0.6087
vn -0.8784 0.0916 -0.4690
vn -0.9686 0.1593 -0.1906
vn -0.8987 0.0288 0.4376
vn -0.7510 -0.1280 0.6478
vn -0.5599 0.0320 0.8279
vn 0.0579 0.1771 0.9825
vn 0.3284 0.1101 0.9381
vn 0.4989 0.3248 0.8035
vn 0.8389 0.3879 0.3817
vn 0.9520 0.3043 -0.0315
vn 0.8804 0.4104 -0.2377
vn -0.4286 0.1791 -0.8856
vn -0.3487 -0.0717 -0.9345
vn -0.5084 -0.2994 -0.8074
vn -0.9868 -0.1379 0.0851
vn -0.8870 -0.4618 0.0026
vn -0.7438 -0.6292 0.2254
vn -0.2303 -0.1327 0.9640
vn -0.1328 -0.4618 0.8770
vn 0.1736 -0.5155 0.8391
vn 0.8064 0.2037 0.5551
vn 0.8747 -0.0682 0.4798
vn 0.9756 -0.1237 0.1812
vn 0.7259 0.2781 -0.6291
vn 0.7481 0.1412 -0.6484
vn 0.5528 -0.0181 -0.8331
vn 0.1328 -0.4470 -0.8846
vn -0.0274 -0.6734 -0.7388
vn -0.3354 -0.6310 -0.6995
vn -0.5184 -0.7647 -0.3828
vn -0.3627 -0.9184 -0.1584
vn -0.4576 -0.8784 0.1376
vn -0.2033 -0.8784 0.4325
vn 0.1034 -0.9184 0.3820
vn 0.3025 -0.7647 0.5690
vn 0.5003 -0.3643 -0.7855
vn 0.6459 -0.5220 -0.5571
vn 0.4918 -0.7603 -0.4242
vn 0.6427 -0.6310 0.4345
vn 0.7268 -0.6734 0.1356
vn 0.8945 -0.4470 -0.0015
usemtl fire
s 1
f 49/103/31 62/104/31 61/105/31
f 50/106/32 62/107/32 64/108/32
f 49/109/33 61/110/33 66/111/33
f 49/112/34 66/113/34 68/114/34
f 49/115/35 68/116/35 65/117/35
f 50/106/36 64/108/36 71/118/36
f 51/119/37 63/120/37 73/121/37
f 52/122/38 67/123/38 75/124/38
f 53/125/39 69/126/39 77/127/39
f 54/128/40 70/129/40 79/130/40
f 50/106/41 71/118/41 74/131/41
f 51/119/42 73/121/42 76/132/42
f 52/122/43 75/124/43 78/133/43
f 53/125/44 77/127/44 80/134/44
f 54/128/45 79/130/45 72/135/45
f 55/136/46 81/137/46 86/138/46
f 56/139/47 82/140/47 88/141/47
f 57/142/48 83/143/48 89/144/48
f 58/145/49 84/146/49 90/147/49
f 59/148/50 85/149/50 87/150/50
f 87/150/51 90/151/51 60/152/51
f 87/150/52 85/149/52 90/151/52
f 85/149/53 58/145/53 90/151/53
f 90/147/54 89/153/54 60/154/54
f 90/147/55 84/146/56 89/153/57
f 84/146/56 57/142/58 89/153/57
f 89/144/59 88/155/59 60/156/59
f 89/144/60 83/143/60 88/155/60
f 83/143/61 56/157/61 88/155/61
f 88/141/62 86/158/62 60/159/62
f 88/141/63 82/140/63 86/158/63
f 82/140/64 55/136/64 86/158/64
f 86/138/65 87/160/65 60/161/65
f 86/138/66 81/137/66 87/160/66
f 81/137/67 59/148/67 87/160/67
f 72/135/68 85/149/68 59/148/68
f 72/135/69 79/130/69 85/149/69
f 79/130/70 58/145/70 85/149/70
f 80/134/71 84/146/71 58/145/71
f 80/134/72 77/127/72 84/146/72
f 77/127/73 57/142/73 84/146/73
f 78/133/74 83/143/74 57/142/74
f 78/133/75 75/124/75 83/143/75
f 75/124/76 56/157/76 83/143/76
f 76/132/77 82/140/77 56/139/77
f 76/132/78 73/121/78 82/140/78
f 73/121/79 55/136/79 82/140/79
f 74/131/80 81/137/80 55/136/80
f 74/131/81 71/118/81 81/137/81
f 71/118/82 59/148/82 81/137/82
f 79/130/83 80/134/83 58/145/83
f 79/130/84 70/129/84 80/134/84
f 70/129/85 53/125/85 80/134/85
f 77/127/86 78/133/86 57/142/86
f 77/127/87 69/126/87 78/133/87
f 69/126/88 52/122/88 78/133/88
f 75/124/89 76/162/89 56/157/89
f 75/124/90 67/123/90 76/162/90
f 67/123/91 51/163/91 76/162/91
f 73/121/92 74/131/92 55/136/92
f 73/121/93 63/120/93 74/131/93
f 63/120/94 50/106/94 74/131/94
f 71/118/95 72/135/95 59/148/95
f 71/118/96 64/108/96 72/135/96
f 64/108/97 54/128/97 72/135/97
f 65/117/98 70/129/98 54/128/98
f 65/117/99 68/116/99 70/129/99
f 68/116/100 53/125/100 70/129/100
f 68/114/101 69/126/101 53/125/101
f 68/114/102 66/113/102 69/126/102
f 66/113/103 52/122/103 69/126/103
f 66/111/104 67/123/104 52/122/104
f 66/111/105 61/110/105 67/123/105
f 61/110/106 51/163/106 67/123/106
f 64/108/107 65/164/107 54/128/107
f 64/108/108 62/107/108 65/164/108
f 62/107/109 49/165/109 65/164/109
f 61/105/110 63/120/110 51/119/110
f 61/105/111 62/104/111 63/120/111
f 62/104/112 50/106/112 63/120/112
