# Blender v2.93.0 OBJ File: 'forest2.blend'
# www.blender.org
mtllib trunk.mtl
o Cylinder.019_Cylinder.001
v 1.023915 -0.502564 -2.367662
v 1.954913 -0.502564 -2.065162
v 3.297937 -0.460130 -0.861108
v 3.352753 -0.315679 0.428027
v 1.770439 -0.385487 1.205658
v 1.006163 -0.662801 2.207332
v -0.586229 -0.513272 1.151228
v -1.114939 -0.393393 0.453431
v -0.754745 -0.413303 -1.182424
v -0.251212 -0.413303 -1.875477
v 1.239238 1.246602 -1.423810
v 0.899349 2.918465 -1.534819
v 0.909839 4.379160 -1.713714
v 0.916874 6.074907 -1.560444
v 1.774785 6.074907 -1.281692
v 1.736650 4.379160 -1.445067
v 1.773831 2.918465 -1.250683
v 2.036270 1.246602 -1.164839
v 2.305003 6.074907 -0.551909
v 2.247648 4.379160 -0.741739
v 2.314290 2.918465 -0.506805
v 2.528862 1.246602 -0.486843
v 2.305003 6.074907 0.350152
v 2.247648 4.379160 0.127622
v 2.314290 2.918465 0.412679
v 2.528862 1.246602 0.351205
v 1.774785 6.074907 1.079934
v 1.736650 4.379160 0.830949
v 1.773831 2.918465 1.156557
v 2.036270 1.246602 1.029201
v 0.916874 6.074907 1.358686
v 0.909839 4.379160 1.099597
v 0.899349 2.918465 1.440694
v 1.239238 1.246602 1.288172
v 0.058963 6.074907 1.079934
v 0.083027 4.379160 0.830949
v 0.024868 2.918465 1.156557
v 0.442207 1.246602 1.029200
v -0.471255 6.074907 0.350152
v -0.427970 4.379160 0.127622
v -0.515591 2.918465 0.412679
v -0.050386 1.246602 0.351205
v -0.471255 6.074907 -0.551909
v -0.427970 4.379160 -0.741740
v -0.515591 2.918465 -0.506805
v -0.050386 1.246602 -0.486843
v 0.058964 6.074907 -1.281692
v 0.083028 4.379160 -1.445068
v 0.024868 2.918465 -1.250684
v 0.442207 1.246602 -1.164839
v 1.820333 -0.023455 -1.532604
v 2.397085 -0.023455 -0.738773
v 2.397085 -0.023455 0.242456
v 1.820333 -0.023455 1.036287
v 0.887129 -0.023455 1.339503
v -0.046076 -0.023455 1.036287
v -0.622827 -0.023455 0.242456
v -0.622827 -0.023455 -0.738773
v -0.046075 -0.023455 -1.532604
v 0.887129 -0.023455 -1.835820
v 0.155285 -0.342542 1.435625
v 0.840722 1.246602 1.158686
v 0.462109 2.918465 1.298625
v 0.496433 4.379160 0.965273
v 0.487919 6.074907 1.219310
v 0.420526 -0.023455 1.187895
v -1.064779 -0.247943 -0.212397
v -0.050386 1.246602 -0.067819
v -0.515591 2.918465 -0.047063
v -0.427970 4.379160 -0.307059
v -0.471255 6.074907 -0.100879
v -0.622827 -0.023455 -0.248159
v 0.294782 -0.287427 -1.995372
v 0.840723 1.246602 -1.294325
v 0.462109 2.918465 -1.392752
v 0.496433 4.379160 -1.579391
v 0.487919 6.074907 -1.421068
v 0.420527 -0.023455 -1.684212
v 2.625970 -0.230481 -1.440161
v 2.282566 1.246602 -0.825841
v 2.044060 2.918465 -0.878744
v 1.992149 4.379160 -1.093403
v 2.039894 6.074907 -0.916800
v 2.108709 -0.023455 -1.135689
v -0.581424 -0.413303 -1.420979
v 0.119169 1.246602 -0.720215
v -0.329560 2.918465 -0.762855
v -0.252080 4.379160 -0.983831
v -0.288749 6.074907 -0.803107
v -0.424304 -0.023455 -1.012017
v 0.902347 6.010714 -1.433335
v 1.679980 6.010714 -1.180666
v 2.160583 6.010714 -0.519173
v 2.160583 6.010714 0.298478
v 1.679980 6.010714 0.959972
v 0.902347 6.010714 1.212640
v 0.124715 6.010714 0.959972
v -0.355888 6.010714 0.298478
v -0.355888 6.010714 -0.519173
v 0.124715 6.010714 -1.180667
v 0.513531 6.010714 1.086306
v -0.355888 6.010714 -0.110347
v 0.513531 6.010714 -1.307001
v 1.920281 6.010714 -0.849920
v -0.190460 6.010714 -0.746865
v 0.902347 6.010714 -1.433327
v 1.679980 6.010714 -1.180659
v 2.160583 6.010714 -0.519165
v 2.160583 6.010714 0.298486
v 1.679980 6.010714 0.959980
v 0.902347 6.010714 1.212648
v 0.124715 6.010714 0.959979
v -0.355888 6.010714 0.298486
v -0.355888 6.010714 -0.519166
v 0.124715 6.010714 -1.180659
v 0.513531 6.010714 1.086313
v -0.355888 6.010714 -0.110340
v 0.513531 6.010714 -1.306993
v 1.920282 6.010714 -0.849912
v -0.190460 6.010714 -0.746858
vt 0.750000 0.490000
vt 0.891068 0.444164
vt 0.934661 0.384164
vt 0.978254 0.324164
vt 0.978254 0.175836
vt 0.891068 0.055836
vt 0.750000 0.010000
vt 0.679466 0.032918
vt 0.608932 0.055836
vt 0.521746 0.175836
vt 0.521746 0.250000
vt 0.521746 0.324164
vt 0.551756 0.365469
vt 0.608932 0.444164
vt 0.679466 0.467082
vt 0.050000 0.517705
vt 0.050000 0.600000
vt -0.000000 0.600000
vt -0.000000 0.517705
vt 0.050000 0.700000
vt -0.000000 0.700000
vt 0.050000 0.800000
vt -0.000000 0.800000
vt 0.050000 0.900000
vt -0.000000 0.900000
vt 0.165579 0.517705
vt 0.165579 0.600000
vt 0.100000 0.600000
vt 0.100000 0.517705
vt 0.165579 0.700000
vt 0.100000 0.700000
vt 0.165579 0.800000
vt 0.100000 0.800000
vt 0.165579 0.900000
vt 0.100000 0.900000
vt 0.250000 0.517705
vt 0.250000 0.600000
vt 0.200000 0.600000
vt 0.200000 0.517705
vt 0.250000 0.700000
vt 0.200000 0.700000
vt 0.250000 0.800000
vt 0.200000 0.800000
vt 0.250000 0.900000
vt 0.200000 0.900000
vt 0.400000 0.517705
vt 0.400000 0.600000
vt 0.300000 0.600000
vt 0.300000 0.517705
vt 0.400000 0.700000
vt 0.300000 0.700000
vt 0.400000 0.800000
vt 0.300000 0.800000
vt 0.400000 0.900000
vt 0.300000 0.900000
vt 0.450000 0.517705
vt 0.450000 0.600000
vt 0.450000 0.700000
vt 0.450000 0.800000
vt 0.450000 0.900000
vt 0.600000 0.517705
vt 0.600000 0.600000
vt 0.500000 0.600000
vt 0.500000 0.517705
vt 0.600000 0.700000
vt 0.500000 0.700000
vt 0.600000 0.800000
vt 0.500000 0.800000
vt 0.600000 0.900000
vt 0.500000 0.900000
vt 0.700000 0.517705
vt 0.700000 0.600000
vt 0.700000 0.700000
vt 0.700000 0.800000
vt 0.700000 0.900000
vt 0.800000 0.517705
vt 0.800000 0.600000
vt 0.800000 0.700000
vt 0.800000 0.800000
vt 0.800000 0.900000
vt 0.850000 0.517705
vt 0.850000 0.600000
vt 0.850000 0.700000
vt 0.850000 0.800000
vt 0.850000 0.900000
vt 1.000000 0.517705
vt 1.000000 0.600000
vt 0.900000 0.600000
vt 0.900000 0.517705
vt 1.000000 0.700000
vt 0.900000 0.700000
vt 1.000000 0.800000
vt 0.900000 0.800000
vt 1.000000 0.900000
vt 0.900000 0.900000
vt 1.000000 0.500000
vt 0.900000 0.500000
vt 0.850000 0.500000
vt 0.800000 0.500000
vt 0.700000 0.500000
vt 0.600000 0.500000
vt 0.500000 0.500000
vt 0.450000 0.500000
vt 0.400000 0.500000
vt 0.300000 0.500000
vt 0.250000 0.500000
vt 0.200000 0.500000
vt 0.165579 0.500000
vt 0.100000 0.500000
vt 0.050000 0.500000
vt -0.000000 0.500000
vt 0.800000 0.900000
vt 0.700000 0.900000
vt 1.000000 0.900000
vt 0.900000 0.900000
vt 0.050000 0.900000
vt -0.000000 0.900000
vt 0.250000 0.900000
vt 0.200000 0.900000
vt 0.450000 0.900000
vt 0.400000 0.900000
vt 0.165579 0.900000
vt 0.100000 0.900000
vt 0.600000 0.900000
vt 0.500000 0.900000
vt 0.850000 0.900000
vt 0.300000 0.900000
vt 0.050000 0.900000
vt 0.100000 0.900000
vt 0.165579 0.900000
vt 0.200000 0.900000
vt 0.250000 0.900000
vt 0.300000 0.900000
vt 0.400000 0.900000
vt 0.450000 0.900000
vt 0.500000 0.900000
vt 0.600000 0.900000
vt 0.700000 0.900000
vt 0.800000 0.900000
vt 0.850000 0.900000
vt 0.900000 0.900000
vt 1.000000 0.900000
vn -0.0033 -0.9999 -0.0127
vn -0.2875 0.3667 -0.8848
vn -0.3066 -0.1250 -0.9436
vn -0.3070 -0.1135 -0.9449
vn -0.3078 0.0869 -0.9475
vn -0.7290 0.4336 -0.5296
vn -0.7881 -0.2261 -0.5726
vn -0.8082 -0.0460 -0.5872
vn -0.8082 0.0451 -0.5872
vn -0.9117 0.4109 0.0000
vn -0.9634 -0.2681 0.0000
vn -0.9982 0.0599 0.0000
vn -0.9997 -0.0255 0.0000
vn -0.7718 0.2998 0.5607
vn -0.7855 -0.2395 0.5707
vn -0.7984 0.1611 0.5801
vn -0.8052 -0.0973 0.5850
vn -0.3067 0.1232 0.9438
vn -0.3056 -0.1479 0.9406
vn -0.3015 0.2189 0.9280
vn -0.3059 -0.1426 0.9413
vn 0.3087 -0.0472 0.9500
vn 0.3089 -0.0239 0.9508
vn 0.3018 0.2147 0.9289
vn 0.3057 -0.1450 0.9410
vn 0.8018 -0.1331 0.5826
vn 0.8063 0.0819 0.5858
vn 0.7999 0.1499 0.5811
vn 0.8046 -0.1039 0.5846
vn 0.9947 -0.1032 0.0000
vn 0.9919 0.1273 0.0000
vn 0.9990 0.0456 0.0000
vn 0.9994 -0.0338 0.0000
vn 0.8086 0.0326 -0.5875
vn 0.8053 0.0964 -0.5850
vn 0.8077 -0.0575 -0.5868
vn 0.8084 0.0384 -0.5874
vn 0.3016 0.2175 -0.9283
vn 0.3090 -0.0003 -0.9511
vn 0.3069 -0.1179 -0.9444
vn 0.3079 0.0844 -0.9477
vn 0.2034 0.7529 -0.6259
vn 0.3710 0.9165 -0.1494
vn 0.3666 0.9279 -0.0679
vn 0.3552 0.7752 0.5224
vn 0.3741 0.6795 0.6311
vn -0.3385 0.6444 0.6856
vn -0.4950 0.7564 0.4276
vn -0.6363 0.7397 -0.2188
vn -0.5887 0.6859 -0.4277
vn -0.1536 0.7403 -0.6545
vn -0.2469 0.7508 0.6127
vn -0.5190 0.8506 0.0845
vn -0.2575 0.7454 -0.6149
vn 0.2697 0.8370 -0.4761
vn -0.4062 0.9138 0.0000
vn -0.1408 0.8901 0.4334
vn 0.1492 0.8757 0.4593
vn 0.4862 0.8738 0.0000
vn 0.1332 0.9024 -0.4099
vn 0.4007 0.8687 0.2912
vn -0.3234 0.9166 -0.2349
vn -0.3452 0.9044 0.2508
vn 0.3726 0.8876 -0.2707
vn -0.1263 0.9127 -0.3886
vn 0.0000 1.0000 -0.0000
usemtl trunk
s off
f 1/1/1 2/2/1 79/3/1 3/4/1 4/5/1 5/6/1 6/7/1 61/8/1 7/9/1 8/10/1 67/11/1 9/12/1 85/13/1 10/14/1 73/15/1
f 78/16/2 74/17/2 11/18/2 60/19/2
f 74/17/3 75/20/3 12/21/3 11/18/3
f 75/20/4 76/22/4 13/23/4 12/21/4
f 76/22/5 77/24/5 14/25/5 13/23/5
f 90/26/6 86/27/6 50/28/6 59/29/6
f 86/27/7 87/30/7 49/31/7 50/28/7
f 87/30/8 88/32/8 48/33/8 49/31/8
f 88/32/9 89/34/9 47/35/9 48/33/9
f 72/36/10 68/37/10 46/38/10 58/39/10
f 68/37/11 69/40/11 45/41/11 46/38/11
f 69/40/12 70/42/12 44/43/12 45/41/12
f 70/42/13 71/44/13 43/45/13 44/43/13
f 56/46/14 38/47/14 42/48/14 57/49/14
f 38/47/15 37/50/15 41/51/15 42/48/15
f 37/50/16 36/52/16 40/53/16 41/51/16
f 36/52/17 35/54/17 39/55/17 40/53/17
f 66/56/18 62/57/18 38/47/18 56/46/18
f 62/57/19 63/58/19 37/50/19 38/47/19
f 63/58/20 64/59/20 36/52/20 37/50/20
f 64/59/21 65/60/21 35/54/21 36/52/21
f 54/61/22 30/62/22 34/63/22 55/64/22
f 30/62/23 29/65/23 33/66/23 34/63/23
f 29/65/24 28/67/24 32/68/24 33/66/24
f 28/67/25 27/69/25 31/70/25 32/68/25
f 53/71/26 26/72/26 30/62/26 54/61/26
f 26/72/27 25/73/27 29/65/27 30/62/27
f 25/73/28 24/74/28 28/67/28 29/65/28
f 24/74/29 23/75/29 27/69/29 28/67/29
f 52/76/30 22/77/30 26/72/30 53/71/30
f 22/77/31 21/78/31 25/73/31 26/72/31
f 21/78/32 20/79/32 24/74/32 25/73/32
f 20/79/33 19/80/33 23/75/33 24/74/33
f 84/81/34 80/82/34 22/77/34 52/76/34
f 80/82/35 81/83/35 21/78/35 22/77/35
f 81/83/36 82/84/36 20/79/36 21/78/36
f 82/84/37 83/85/37 19/80/37 20/79/37
f 60/86/38 11/87/38 18/88/38 51/89/38
f 11/87/39 12/90/39 17/91/39 18/88/39
f 12/90/40 13/92/40 16/93/40 17/91/40
f 13/92/41 14/94/41 15/95/41 16/93/41
f 1/96/42 60/86/42 51/89/42 2/97/42
f 79/98/43 84/81/43 52/76/43 3/99/43
f 3/99/44 52/76/44 53/71/44 4/100/44
f 4/100/45 53/71/45 54/61/45 5/101/45
f 5/101/46 54/61/46 55/64/46 6/102/46
f 61/103/47 66/56/47 56/46/47 7/104/47
f 7/104/48 56/46/48 57/49/48 8/105/48
f 67/106/49 72/36/49 58/39/49 9/107/49
f 85/108/50 90/26/50 59/29/50 10/109/50
f 73/110/51 78/16/51 60/19/51 1/111/51
f 6/102/52 55/64/52 66/56/52 61/103/52
f 32/68/21 31/70/21 65/60/21 64/59/21
f 33/66/20 32/68/20 64/59/20 63/58/20
f 34/63/19 33/66/19 63/58/19 62/57/19
f 55/64/18 34/63/18 62/57/18 66/56/18
f 8/105/53 57/49/53 72/36/53 67/106/53
f 40/53/13 39/55/13 71/44/13 70/42/13
f 41/51/12 40/53/12 70/42/12 69/40/12
f 42/48/11 41/51/11 69/40/11 68/37/11
f 57/49/10 42/48/10 68/37/10 72/36/10
f 10/109/54 59/29/54 78/16/54 73/110/54
f 48/33/5 47/35/5 77/24/5 76/22/5
f 49/31/4 48/33/4 76/22/4 75/20/4
f 50/28/3 49/31/3 75/20/3 74/17/3
f 59/29/2 50/28/2 74/17/2 78/16/2
f 2/97/55 51/89/55 84/81/55 79/98/55
f 16/93/37 15/95/37 83/85/37 82/84/37
f 17/91/36 16/93/36 82/84/36 81/83/36
f 18/88/35 17/91/35 81/83/35 80/82/35
f 51/89/34 18/88/34 80/82/34 84/81/34
f 9/107/50 58/39/50 90/26/50 85/108/50
f 44/43/9 43/45/9 89/34/9 88/32/9
f 45/41/8 44/43/8 88/32/8 87/30/8
f 46/38/7 45/41/7 87/30/7 86/27/7
f 58/39/6 46/38/6 86/27/6 90/26/6
f 23/75/56 19/80/56 93/112/56 94/113/56
f 15/95/57 14/94/57 91/114/57 92/115/57
f 14/25/58 77/24/58 103/116/58 91/117/58
f 43/45/59 71/44/59 102/118/59 99/119/59
f 35/54/60 65/60/60 101/120/60 97/121/60
f 89/34/61 43/45/61 99/119/61 105/122/61
f 77/24/58 47/35/58 100/123/58 103/116/58
f 27/69/62 23/75/62 94/113/62 95/124/62
f 65/60/60 31/70/60 96/125/60 101/120/60
f 19/80/63 83/85/63 104/126/63 93/112/63
f 47/35/61 89/34/61 105/122/61 100/123/61
f 39/55/64 35/54/64 97/121/64 98/127/64
f 83/85/63 15/95/63 92/115/63 104/126/63
f 31/70/65 27/69/65 95/124/65 96/125/65
f 71/44/59 39/55/59 98/127/59 102/118/59
usemtl Material.001
f 118/128/66 115/129/66 120/130/66 114/131/66 117/132/66 113/133/66 112/134/66 116/135/66 111/136/66 110/137/66 109/138/66 108/139/66 119/140/66 107/141/66 106/142/66
